# xmcd CD database file
#
# Track frame offsets:
#	150
#	11855
#	34507
#	54362
#	71417
#	87165
#	102010
#	114954
#	133157
#	147050
#	161680
#	178557
#	191662
#	205215
#	226805
#	243087
#
# Disc length: 3432 seconds
#
# Revision: 2
# Processed by: cddbd v1.5.2PL0 Copyright (c) Steve Scherf et al.
# Submitted via: CDex 1.51
#
DISCID=ca0d6610
DTITLE=Various Artist - Ultimate Country Dance - D1of2
DYEAR=2007
DGENRE=Country
TTITLE0=Mcbride, Martina - My Baby Loves Me
TTITLE1=Diffie, Joe - Third Rock From The Son (Extended Dance Mix)
TTITLE2=Carpenter, Mary Chapin - Down At The Twist And Shout
TTITLE3=Paisley, Brad - We Danced
TTITLE4=Loveless, Patty - Blame It On Your Heart
TTITLE5=Diamond Rio - Meet In The Middle
TTITLE6=Tillis, Pam - Mi Vida Loca (My Crazy Life)
TTITLE7=Tritt, Travis - It's A Great Day To Be Alive
TTITLE8=Raye, Collin - That's My Story
TTITLE9=Cash, Roseanne - My Baby Thinks He's A Train
TTITLE10=Tractors - Baby Likes To Rock It
TTITLE11=Anderson, John - Straight Tequila Night
TTITLE12=Shenandoah - Church On Cumberland Road, The
TTITLE13=Restless Heart - Bluest Eyes In Texas
TTITLE14=Parnell, Lee Roy - What Kind Of Fool Do You Think I Am
TTITLE15=Rednex - Cotton Eye Joe
EXTD=YEAR: 2007
EXTT0=
EXTT1=
EXTT2=
EXTT3=
EXTT4=
EXTT5=
EXTT6=
EXTT7=
EXTT8=
EXTT9=
EXTT10=
EXTT11=
EXTT12=
EXTT13=
EXTT14=
EXTT15=
PLAYORDER=
